<?xml version="1.0" encoding="utf-8"?>
<!-- Generator: Adobe Illustrator 25.3.1, SVG Export Plug-In . SVG Version: 6.00 Build 0)  -->
<svg version="1.1" id="레이어_1" xmlns="http://www.w3.org/2000/svg" xmlns:xlink="http://www.w3.org/1999/xlink" x="0px"
	 y="0px" viewBox="0 0 120 120" style="enable-background:new 0 0 120 120;" xml:space="preserve">
<style type="text/css">
	.st0{fill:#FFFFFF;}
</style>
<g transform="translate(0.000000,120.000000) scale(0.100000,-0.100000)">
	<path class="st0" d="M598,1173c-9-2-24-19-33-36c-9-18-29-54-46-82c-16-27-35-61-42-75c-6-14-14-27-18-30c-3-3-18-29-34-57
		c-15-29-32-53-36-53s-15,25-24,55c-8,30-17,55-19,55c-8,0-84-127-114-191C100,482,179,181,413,67c240-116,514,6,602,268
		c19,56,23,204,6,246c-5,15-8,29-5,31c4,4-15,68-33,108c-3,8-7,17-7,20c-6,22-66,126-104,180c-49,68-205,231-238,247
		C624,1172,608,1175,598,1173z"/>
</g>
</svg>
