<?xml version="1.0" standalone="no"?>
<!DOCTYPE svg PUBLIC "-//W3C//DTD SVG 20010904//EN"
 "http://www.w3.org/TR/2001/REC-SVG-20010904/DTD/svg10.dtd">
<svg version="1.0" xmlns="http://www.w3.org/2000/svg"
 width="120.000000pt" height="120.000000pt" viewBox="0 0 120.000000 120.000000"
 preserveAspectRatio="xMidYMid meet">
<metadata>
Created by potrace 1.14, written by Peter Selinger 2001-2017
</metadata>
<g transform="translate(0.000000,120.000000) scale(0.100000,-0.100000)"
fill="#000000" stroke="none">
<path d="M598 1173 c-9 -2 -24 -19 -33 -36 -9 -18 -29 -54 -46 -82 -16 -27
-35 -61 -42 -75 -6 -14 -14 -27 -18 -30 -3 -3 -18 -29 -34 -57 -15 -29 -32
-53 -36 -53 -4 0 -15 25 -24 55 -8 30 -17 55 -19 55 -8 0 -84 -127 -114 -191
-132 -277 -53 -578 181 -692 240 -116 514 6 602 268 19 56 23 204 6 246 -5 15
-8 29 -5 31 4 4 -15 68 -33 108 -3 8 -7 17 -7 20 -6 22 -66 126 -104 180 -49
68 -205 231 -238 247 -10 5 -26 8 -36 6z"/>
</g>
</svg>
